<svg width="22" height="22" viewBox="0 0 22 22" fill="none" xmlns="http://www.w3.org/2000/svg">
<path d="M1 8.89477H21M1 8.89477V19.9474C1 20.2266 1.1109 20.4943 1.30831 20.6917C1.50572 20.8891 1.77346 21 2.05263 21H19.9474C20.2265 21 20.4943 20.8891 20.6917 20.6917C20.8891 20.4943 21 20.2266 21 19.9474V8.89477M1 8.89477V3.63161C1 3.35244 1.1109 3.08469 1.30831 2.88729C1.50572 2.68988 1.77346 2.57898 2.05263 2.57898H19.9474C20.2265 2.57898 20.4943 2.68988 20.6917 2.88729C20.8891 3.08469 21 3.35244 21 3.63161V8.89477" stroke="white" stroke-width="2" stroke-linejoin="round"/>
<path d="M6.78945 1V5.21053M15.2105 1V5.21053M13.1052 16.7895H16.2631M5.73682 16.7895H8.89471M13.1052 12.5789H16.2631M5.73682 12.5789H8.89471" stroke="white" stroke-width="2" stroke-linecap="round" stroke-linejoin="round"/>
</svg>
