<svg width="138" height="53" viewBox="0 0 138 53" fill="none" xmlns="http://www.w3.org/2000/svg">
<circle cx="26.3018" cy="26" r="24.8666" stroke="#E1A8FF" stroke-width="2.2668"/>
<path d="M14.269 35.7853C11.941 35.7853 10.1555 35.2231 8.91257 34.0985C7.68938 32.9542 7.07778 31.3266 7.07778 29.2156V18.6508H10.5994V28.9493C10.5994 30.2908 10.9151 31.3069 11.5464 31.9974C12.1974 32.6682 13.1346 33.0036 14.3578 33.0036C15.6204 33.0036 16.5871 32.6484 17.2579 31.9382C17.9484 31.2082 18.2937 30.1725 18.2937 28.8309V18.6508H21.8449V29.038C21.8449 31.1885 21.184 32.8556 19.8621 34.0393C18.5403 35.2033 16.6759 35.7853 14.269 35.7853ZM42.1162 35.5486H37.9139L35.6352 25.7828C35.359 24.6385 35.1223 23.435 34.925 22.1724C34.7277 23.218 34.5699 24.017 34.4515 24.5694C34.3331 25.1021 33.4848 28.7618 31.9064 35.5486H27.7042L23.354 18.6508H26.9348L29.391 29.5707L29.9237 32.2045C30.1407 31.0997 30.3577 30.0442 30.5747 29.038C30.7918 28.0121 31.5908 24.5497 32.9718 18.6508H36.9373L39.068 27.6472C39.2456 28.3179 39.5317 29.8371 39.9263 32.2045L40.2222 30.8136L40.8732 28.0615L42.8856 18.6508H46.496L42.1162 35.5486Z" fill="#E1A8FF"/>
<path d="M62.9122 33.3782C61.1617 33.3782 59.8192 32.9554 58.8847 32.1099C57.965 31.2495 57.5051 30.0257 57.5051 28.4385V20.4948H60.153V28.2382C60.153 29.2469 60.3904 30.0109 60.8651 30.5301C61.3546 31.0344 62.0592 31.2866 62.9789 31.2866C63.9283 31.2866 64.6552 31.0196 65.1595 30.4856C65.6787 29.9367 65.9383 29.1579 65.9383 28.1492V20.4948H68.6084V28.305C68.6084 29.9219 68.1115 31.1753 67.1176 32.0654C66.1237 32.9406 64.7219 33.3782 62.9122 33.3782ZM81.4027 24.5223C81.4027 25.3381 81.2173 26.0724 80.8464 26.7251C80.4756 27.363 79.9415 27.8599 79.2443 28.2159C78.5471 28.5571 77.7238 28.7277 76.7745 28.7277H73.6148V33.2002H70.9669V20.4948H76.6632C78.1911 20.4948 79.363 20.8508 80.1789 21.5629C80.9948 22.2601 81.4027 23.2465 81.4027 24.5223ZM78.7326 24.5668C78.7326 23.2317 77.9464 22.5642 76.3739 22.5642H73.6148V26.6806H76.4407C77.1676 26.6806 77.7313 26.5026 78.1318 26.1466C78.5323 25.7757 78.7326 25.2491 78.7326 24.5668ZM90.9883 33.2002L85.4478 23.4097C85.5516 24.3591 85.611 25.123 85.6258 25.7016V33.2002H83.2672V20.4948H86.2933L91.9229 30.3521C91.819 29.4472 91.7597 28.6239 91.7448 27.8822V20.4948H94.1035V33.2002H90.9883ZM96.5955 33.2002V20.4948H106.586V22.5419H99.2433V25.7461H106.03V27.7932H99.2433V31.1531H106.942V33.2002H96.5955ZM117.017 33.2002L113.813 28.1492L110.631 33.2002H107.805L112.211 26.5249L108.184 20.4948H110.987L113.813 24.9895L116.639 20.4948H119.443L115.571 26.5249L119.799 33.2002H117.017ZM126.914 22.5419V33.2002H124.267V22.5419H120.15V20.4948H131.031V22.5419H126.914Z" fill="#E1A8FF"/>
<path fill-rule="evenodd" clip-rule="evenodd" d="M45.6852 42.683L58.1734 51.4273C59.1687 52.1242 60.5405 51.8824 61.2374 50.8871L63.3129 47.923C64.0098 46.9277 63.7679 45.5559 62.7726 44.859L49.7098 35.7123L48.34 38.0848L60.7738 46.7911L59.3053 48.8882L47.055 40.3104L45.6852 42.683Z" fill="#E1A8FF"/>
</svg>
