
   <!-- <svg width="144" height="62" viewBox="0 0 144 62" fill="none" xmlns="http://www.w3.org/2000/svg">
  <circle cx="32.2065" cy="26" r="24.8666" stroke="white" stroke-width="2.2668"/>
  <g filter="url(#filter0_d_29_224)">
    <path d="M20.1739 35.7853C17.8459 35.7853 16.0604 35.2231 14.8175 34.0985C13.5943 32.9542 12.9827 31.3266 12.9827 29.2156V18.6508H16.5043V28.9493C16.5043 30.2908 16.82 31.3069 17.4513 31.9974C18.1023 32.6682 19.0395 33.0036 20.2627 33.0036C21.5253 33.0036 22.492 32.6484 23.1628 31.9382C23.8533 31.2082 24.1986 30.1725 24.1986 28.8309V18.6508H27.7498V29.038C27.7498 31.1885 27.0889 32.8556 25.767 34.0393C24.4452 35.2033 22.5808 35.7853 20.1739 35.7853ZM48.0211 35.5486H43.8188L41.5401 25.7828C41.2639 24.6385 41.0272 23.435 40.8299 22.1724C40.6326 23.218 40.4748 24.017 40.3564 24.5694C40.238 25.1021 39.3897 28.7618 37.8114 35.5486H33.6091L29.2589 18.6508H32.8397L35.2959 29.5707L35.8286 32.2045C36.0456 31.0997 36.2626 30.0442 36.4797 29.038C36.6967 28.0121 37.4957 24.5497 38.8767 18.6508H42.8422L44.973 27.6472C45.1505 28.3179 45.4366 29.8371 45.8312 32.2045L46.1271 30.8136L46.7781 28.0615L48.7905 18.6508H52.4009L48.0211 35.5486Z" fill="white"/>
  </g>
  <path d="M68.8169 33.3782C67.0665 33.3782 65.724 32.9554 64.7895 32.1099C63.8698 31.2495 63.4099 30.0257 63.4099 28.4385V20.4948H66.0578V28.2382C66.0578 29.2469 66.2951 30.0109 66.7698 30.5301C67.2594 31.0344 67.964 31.2866 68.8837 31.2866C69.8331 31.2866 70.5599 31.0196 71.0643 30.4856C71.5835 29.9367 71.8431 29.1579 71.8431 28.1492V20.4948H74.5132V28.305C74.5132 29.9219 74.0163 31.1753 73.0224 32.0654C72.0285 32.9406 70.6267 33.3782 68.8169 33.3782ZM87.3075 24.5223C87.3075 25.3381 87.122 26.0724 86.7512 26.7251C86.3803 27.363 85.8463 27.8599 85.1491 28.2159C84.4519 28.5571 83.6286 28.7277 82.6792 28.7277H79.5196V33.2002H76.8717V20.4948H82.568C84.0959 20.4948 85.2678 20.8508 86.0837 21.5629C86.8995 22.2601 87.3075 23.2465 87.3075 24.5223ZM84.6373 24.5668C84.6373 23.2317 83.8511 22.5642 82.2787 22.5642H79.5196V26.6806H82.3455C83.0723 26.6806 83.636 26.5026 84.0366 26.1466C84.4371 25.7757 84.6373 25.2491 84.6373 24.5668ZM96.8931 33.2002L91.3526 23.4097C91.4564 24.3591 91.5157 25.123 91.5306 25.7016V33.2002H89.172V20.4948H92.1981L97.8276 30.3521C97.7238 29.4472 97.6645 28.6239 97.6496 27.8822V20.4948H100.008V33.2002H96.8931ZM102.5 33.2002V20.4948H112.491V22.5419H105.148V25.7461H111.935V27.7932H105.148V31.1531H112.847V33.2002H102.5ZM122.922 33.2002L119.718 28.1492L116.536 33.2002H113.71L118.116 26.5249L114.088 20.4948H116.892L119.718 24.9895L122.544 20.4948H125.348L121.476 26.5249L125.704 33.2002H122.922ZM132.819 22.5419V33.2002H130.171V22.5419H126.055V20.4948H136.936V22.5419H132.819Z" fill="white"/>
  <path fill-rule="evenodd" clip-rule="evenodd" d="M13.4699 43L2.45892 54.011C1.59976 54.8702 1.59976 56.2632 2.45892 57.1223L5.01756 59.681C5.87671 60.5401 7.26967 60.5401 8.12883 59.681L19.1398 48.6699L17.21 46.7401L6.57319 57.377L4.7629 55.5667L15.3997 44.9298L13.4699 43Z" fill="white"/>
  <defs>
    <filter id="filter0_d_29_224" x="12.4827" y="18.6508" width="40.4182" height="21.6345" filterUnits="userSpaceOnUse" color-interpolation-filters="sRGB">
      <feFlood flood-opacity="0" result="BackgroundImageFix"/>
      <feColorMatrix in="SourceAlpha" type="matrix" values="0 0 0 0 0 0 0 0 0 0 0 0 0 0 0 0 0 0 127 0" result="hardAlpha"/>
      <feOffset dy="4"/>
      <feGaussianBlur stdDeviation="0.25"/>
      <feComposite in2="hardAlpha" operator="out"/>
      <feColorMatrix type="matrix" values="0 0 0 0 0 0 0 0 0 0 0 0 0 0 0 0 0 0 0.25 0"/>
      <feBlend mode="normal" in2="BackgroundImageFix" result="effect1_dropShadow_29_224"/>
      <feBlend mode="normal" in="SourceGraphic" in2="effect1_dropShadow_29_224" result="shape"/>
    </filter>
  </defs>
</svg>

-->

<svg width="144" height="62" viewBox="0 0 144 62" fill="none" xmlns="http://www.w3.org/2000/svg">
<circle cx="32.2065" cy="26" r="24.8666" stroke="#E1A8FF" stroke-width="2.2668"/>
<g filter="url(#filter0_d_29_224)">
<path d="M20.1739 35.7853C17.8459 35.7853 16.0604 35.2231 14.8175 34.0985C13.5943 32.9542 12.9827 31.3266 12.9827 29.2156V18.6508H16.5043V28.9493C16.5043 30.2908 16.82 31.3069 17.4513 31.9974C18.1023 32.6682 19.0395 33.0036 20.2627 33.0036C21.5253 33.0036 22.492 32.6484 23.1628 31.9382C23.8533 31.2082 24.1986 30.1725 24.1986 28.8309V18.6508H27.7498V29.038C27.7498 31.1885 27.0889 32.8556 25.767 34.0393C24.4452 35.2033 22.5808 35.7853 20.1739 35.7853ZM48.0211 35.5486H43.8188L41.5401 25.7828C41.2639 24.6385 41.0272 23.435 40.8299 22.1724C40.6326 23.218 40.4748 24.017 40.3564 24.5694C40.238 25.1021 39.3897 28.7618 37.8114 35.5486H33.6091L29.2589 18.6508H32.8397L35.2959 29.5707L35.8286 32.2045C36.0456 31.0997 36.2626 30.0442 36.4797 29.038C36.6967 28.0121 37.4957 24.5497 38.8767 18.6508H42.8422L44.973 27.6472C45.1505 28.3179 45.4366 29.8371 45.8312 32.2045L46.1271 30.8136L46.7781 28.0615L48.7905 18.6508H52.4009L48.0211 35.5486Z" fill="#E1A8FF"/>
</g>
<path d="M68.8169 33.3782C67.0665 33.3782 65.724 32.9554 64.7895 32.1099C63.8698 31.2495 63.4099 30.0257 63.4099 28.4385V20.4948H66.0578V28.2382C66.0578 29.2469 66.2951 30.0109 66.7698 30.5301C67.2594 31.0344 67.964 31.2866 68.8837 31.2866C69.8331 31.2866 70.5599 31.0196 71.0643 30.4856C71.5835 29.9367 71.8431 29.1579 71.8431 28.1492V20.4948H74.5132V28.305C74.5132 29.9219 74.0163 31.1753 73.0224 32.0654C72.0285 32.9406 70.6267 33.3782 68.8169 33.3782ZM87.3075 24.5223C87.3075 25.3381 87.122 26.0724 86.7512 26.7251C86.3803 27.363 85.8463 27.8599 85.1491 28.2159C84.4519 28.5571 83.6286 28.7277 82.6792 28.7277H79.5196V33.2002H76.8717V20.4948H82.568C84.0959 20.4948 85.2678 20.8508 86.0837 21.5629C86.8995 22.2601 87.3075 23.2465 87.3075 24.5223ZM84.6373 24.5668C84.6373 23.2317 83.8511 22.5642 82.2787 22.5642H79.5196V26.6806H82.3455C83.0723 26.6806 83.636 26.5026 84.0366 26.1466C84.4371 25.7757 84.6373 25.2491 84.6373 24.5668ZM96.8931 33.2002L91.3526 23.4097C91.4564 24.3591 91.5157 25.123 91.5306 25.7016V33.2002H89.172V20.4948H92.1981L97.8276 30.3521C97.7238 29.4472 97.6645 28.6239 97.6496 27.8822V20.4948H100.008V33.2002H96.8931ZM102.5 33.2002V20.4948H112.491V22.5419H105.148V25.7461H111.935V27.7932H105.148V31.1531H112.847V33.2002H102.5ZM122.922 33.2002L119.718 28.1492L116.536 33.2002H113.71L118.116 26.5249L114.088 20.4948H116.892L119.718 24.9895L122.544 20.4948H125.348L121.476 26.5249L125.704 33.2002H122.922ZM132.819 22.5419V33.2002H130.171V22.5419H126.055V20.4948H136.936V22.5419H132.819Z" fill="#E1A8FF"/>
<path fill-rule="evenodd" clip-rule="evenodd" d="M13.4699 43L2.45892 54.011C1.59976 54.8702 1.59976 56.2632 2.45892 57.1223L5.01756 59.681C5.87671 60.5401 7.26967 60.5401 8.12883 59.681L19.1398 48.6699L17.21 46.7401L6.57319 57.377L4.7629 55.5667L15.3997 44.9298L13.4699 43Z" fill="#E1A8FF"/>
<defs>
<filter id="filter0_d_29_224" x="12.4827" y="18.6508" width="40.4182" height="21.6345" filterUnits="userSpaceOnUse" color-interpolation-filters="sRGB">
<feFlood flood-opacity="0" result="BackgroundImageFix"/>
<feColorMatrix in="SourceAlpha" type="matrix" values="0 0 0 0 0 0 0 0 0 0 0 0 0 0 0 0 0 0 127 0" result="hardAlpha"/>
<feOffset dy="4"/>
<feGaussianBlur stdDeviation="0.25"/>
<feComposite in2="hardAlpha" operator="out"/>
<feColorMatrix type="matrix" values="0 0 0 0 0 0 0 0 0 0 0 0 0 0 0 0 0 0 0.25 0"/>
<feBlend mode="normal" in2="BackgroundImageFix" result="effect1_dropShadow_29_224"/>
<feBlend mode="normal" in="SourceGraphic" in2="effect1_dropShadow_29_224" result="shape"/>
</filter>
</defs>
</svg>
