<svg width="8" height="21" viewBox="0 0 8 21" fill="none" xmlns="http://www.w3.org/2000/svg">
<path d="M3.791 0.465942C3.29313 0.465942 2.80013 0.564013 2.34015 0.754553C1.88018 0.945094 1.46225 1.22437 1.11022 1.57644C0.758185 1.92851 0.47895 2.34648 0.288458 2.80647C0.0979658 3.26646 -5.25112e-05 3.75947 2.11046e-08 4.25734C-2.84543e-05 5.17619 0.333663 6.06378 0.939016 6.75503C1.54437 7.44629 2.38018 7.89415 3.291 8.01534V19.9659C3.291 20.0986 3.34368 20.2257 3.43745 20.3195C3.53121 20.4133 3.65839 20.4659 3.791 20.4659C3.92361 20.4659 4.05079 20.4133 4.14455 20.3195C4.23832 20.2257 4.291 20.0986 4.291 19.9659V8.01514C5.20179 7.89396 6.03757 7.44612 6.64292 6.75491C7.24827 6.0637 7.58198 5.17616 7.582 4.25734C7.58205 3.75947 7.48403 3.26646 7.29354 2.80647C7.10305 2.34648 6.82382 1.92851 6.47178 1.57644C6.11975 1.22437 5.70182 0.945094 5.24185 0.754553C4.78187 0.564013 4.28888 0.465942 3.791 0.465942ZM2.8246 2.17574C2.98079 2.17574 3.13546 2.20651 3.27976 2.26628C3.42407 2.32605 3.55519 2.41366 3.66563 2.52411C3.77608 2.63456 3.86369 2.76567 3.92346 2.90998C3.98324 3.05428 4.014 3.20895 4.014 3.36514C4.014 3.52134 3.98324 3.676 3.92346 3.82031C3.86369 3.96461 3.77608 4.09573 3.66563 4.20618C3.55519 4.31662 3.42407 4.40423 3.27976 4.464C3.13546 4.52378 2.98079 4.55454 2.8246 4.55454C2.50915 4.55454 2.20662 4.42923 1.98357 4.20618C1.76051 3.98312 1.6352 3.68059 1.6352 3.36514C1.6352 3.04969 1.76051 2.74717 1.98357 2.52411C2.20662 2.30105 2.50915 2.17574 2.8246 2.17574Z" fill="#EED244"/>
</svg>