<svg width="77" height="77" viewBox="0 0 77 77" fill="none" xmlns="http://www.w3.org/2000/svg">
<rect width="77" height="77" rx="38.5" fill="#538F21"/>
<path d="M39 58C50.046 58 59 49.046 59 38C59 26.954 50.046 18 39 18C27.954 18 19 26.954 19 38C19 49.046 27.954 58 39 58Z" stroke="white" stroke-width="4" stroke-linecap="round" stroke-linejoin="round"/>
<path d="M19 38H59" stroke="white" stroke-width="4" stroke-linecap="round" stroke-linejoin="round"/>
<path d="M39 58C43.418 58 47 49.046 47 38C47 26.954 43.418 18 39 18C34.582 18 31 26.954 31 38C31 49.046 34.582 58 39 58Z" stroke="white" stroke-width="4" stroke-linecap="round" stroke-linejoin="round"/>
<path d="M24.8579 24.142C26.713 26.0019 28.9173 27.477 31.3443 28.4823C33.7713 29.4876 36.373 30.0034 38.9999 30C41.6268 30.0034 44.2286 29.4876 46.6555 28.4823C49.0825 27.477 51.2868 26.0019 53.1419 24.142M53.1419 51.858C51.2868 49.998 49.0825 48.523 46.6555 47.5177C44.2286 46.5123 41.6268 45.9966 38.9999 46C36.373 45.9966 33.7713 46.5123 31.3443 47.5177C28.9173 48.523 26.713 49.998 24.8579 51.858" stroke="white" stroke-width="4" stroke-linecap="round" stroke-linejoin="round"/>
</svg>
