<svg width="77" height="77" viewBox="0 0 77 77" fill="none" xmlns="http://www.w3.org/2000/svg">
<rect width="77" height="77" rx="38.5" fill="#E09F5E"/>
<path d="M43 49.0921C43 48.2371 43.3687 47.4172 44.0251 46.8126C44.6815 46.208 45.5717 45.8684 46.5 45.8684H54V49C54 49.8794 53.6207 50.7228 52.9456 51.3446C52.2705 51.9664 51.3548 52.3158 50.4 52.3158H46.5C45.5717 52.3158 44.6815 51.9761 44.0251 51.3716C43.3687 50.767 43 49.9471 43 49.0921ZM19 52.7763C19 51.9213 19.3687 51.1014 20.0251 50.4968C20.6815 49.8923 21.5717 49.5526 22.5 49.5526H29V52.6842C29 53.1196 28.9069 53.5508 28.726 53.9531C28.545 54.3554 28.2799 54.7209 27.9456 55.0288C27.6113 55.3367 27.2144 55.581 26.7777 55.7476C26.3409 55.9142 25.8728 56 25.4 56H22.5C21.5717 56 20.6815 55.6603 20.0251 55.0558C19.3687 54.4512 19 53.6313 19 52.7763Z" stroke="white" stroke-width="3.68421" stroke-linejoin="round"/>
<path d="M29 33.9353L54 28.4836M29 52.3158V26.5263L54 21V48.3479" stroke="white" stroke-width="3.68421" stroke-linecap="round" stroke-linejoin="round"/>
</svg>
