<svg width="77" height="77" viewBox="0 0 77 77" fill="none" xmlns="http://www.w3.org/2000/svg">
<rect width="76.9952" height="77" rx="38.4976" fill="#FF6519"/>
<path d="M50.0847 27.9665C50.0847 22.1488 44.8969 17.433 38.4978 17.433C32.0987 17.433 26.9109 22.1488 26.9109 27.9665M23.7509 44.8201V59.567H53.2447V44.8201M20.5908 30.0732C20.5908 29.5145 20.8128 28.9786 21.2079 28.5835C21.6029 28.1885 22.1388 27.9665 22.6975 27.9665H54.2981C54.8568 27.9665 55.3927 28.1885 55.7877 28.5835C56.1828 28.9786 56.4048 29.5145 56.4048 30.0732V42.7134C56.4048 43.2722 56.1828 43.808 55.7877 44.2031C55.3927 44.5982 54.8568 44.8201 54.2981 44.8201H44.8179C44.2592 44.8201 43.7233 44.5982 43.3282 44.2031C42.9332 43.808 42.7112 43.2722 42.7112 42.7134C42.7112 42.1547 42.4892 41.6188 42.0942 41.2238C41.6991 40.8287 41.1632 40.6067 40.6045 40.6067H36.3911C35.8324 40.6067 35.2965 40.8287 34.9014 41.2238C34.5063 41.6188 34.2844 42.1547 34.2844 42.7134C34.2844 43.2722 34.0624 43.808 33.6674 44.2031C33.2723 44.5982 32.7364 44.8201 32.1777 44.8201H22.6975C22.1388 44.8201 21.6029 44.5982 21.2079 44.2031C20.8128 43.808 20.5908 43.2722 20.5908 42.7134V30.0732Z" stroke="white" stroke-width="4.02907" stroke-linecap="round" stroke-linejoin="round"/>
<path d="M34.2842 40.6067H42.711V46.9268H34.2842V40.6067Z" stroke="white" stroke-width="3.99326" stroke-linecap="round" stroke-linejoin="round"/>
</svg>
