<svg width="77" height="77" viewBox="0 0 77 77" fill="none" xmlns="http://www.w3.org/2000/svg">
<rect width="77" height="77" rx="38.5" fill="#E98406"/>
<path d="M49 29.5C50.3261 29.5 51.5979 28.9732 52.5355 28.0355C53.4732 27.0979 54 25.8261 54 24.5C54 23.1739 53.4732 21.9021 52.5355 20.9645C51.5979 20.0268 50.3261 19.5 49 19.5C47.6739 19.5 46.4021 20.0268 45.4645 20.9645C44.5268 21.9021 44 23.1739 44 24.5C44 25.8261 44.5268 27.0979 45.4645 28.0355C46.4021 28.9732 47.6739 29.5 49 29.5Z" stroke="white" stroke-width="4"/>
<path d="M25 31.27L33.003 28.498L44 33.747L33.003 41.944L44 49.184L37.008 58.498M48.32 36.143L51.002 37.602L57 31.966M29.849 46.045L26.879 49.957L17.004 55.497" stroke="white" stroke-width="4" stroke-linecap="round" stroke-linejoin="round"/>
</svg>
