<svg width="77" height="77" viewBox="0 0 77 77" fill="none" xmlns="http://www.w3.org/2000/svg">
<rect width="77" height="77" rx="38.5" fill="#FF6519"/>
<path d="M19 36V52C19 52.5304 19.2107 53.0391 19.5858 53.4142C19.9609 53.7893 20.4696 54 21 54H55C55.5304 54 56.0391 53.7893 56.4142 53.4142C56.7893 53.0391 57 52.5304 57 52V36M57 43H19" stroke="white" stroke-width="4" stroke-linecap="round" stroke-linejoin="round"/>
<path d="M46 35C46 32.8783 45.1571 30.8434 43.6569 29.3431C42.1566 27.8429 40.1217 27 38 27C35.8783 27 33.8434 27.8429 32.3431 29.3431C30.8429 30.8434 30 32.8783 30 35" stroke="white" stroke-width="4" stroke-linecap="round"/>
<path d="M38 18V20M49.414 22L48 23.414M26 22L27.414 23.414" stroke="white" stroke-width="4" stroke-linecap="round" stroke-linejoin="round"/>
</svg>
